<svg width="50" height="50" viewBox="0 0 50 50" fill="none" xmlns="http://www.w3.org/2000/svg">
<path d="M36.4583 6.25C29.8037 6.25 25 11.7438 25.0002 19.8784C25.0428 31.6974 33.9278 40.0538 46.7456 41.6586C47.9348 41.8075 48.3933 40.1601 47.2982 39.6732C42.3799 37.4862 39.8959 34.7111 39.5751 31.9642C39.3354 29.912 40.451 28.1143 41.8518 27.7777C45.4834 26.905 47.9167 22.3825 47.9167 17.7083C47.9167 11.3801 42.7866 6.25 36.4583 6.25Z" fill="#A6A182"/>
<path d="M11.4583 6.25C4.80374 6.25 3.8147e-06 11.7438 0.000164032 19.8784C0.0427818 31.6974 8.92775 40.0538 21.7456 41.6586C22.9348 41.8075 23.3933 40.1601 22.2982 39.6732C17.3799 37.4862 14.8959 34.7111 14.5751 31.9642C14.3354 29.912 15.451 28.1143 16.8518 27.7777C20.4834 26.905 22.9167 22.3825 22.9167 17.7083C22.9167 11.3801 17.7866 6.25 11.4583 6.25Z" fill="#A6A182"/>
</svg>
